<svg height="25" width="25" xmlns="http://www.w3.org/2000/svg"><path d="M12.5 0C5.597 0 0 5.597 0 12.5S5.597 25 12.5 25 25 19.403 25 12.5 19.403 0 12.5 0zm0 23.438c-6.031 0-10.938-4.907-10.938-10.938S6.47 1.562 12.5 1.562 23.438 6.47 23.438 12.5 18.53 23.438 12.5 23.438zm5.475-15.91a1.093 1.093 0 0 0-1.514.317l-5.275 8.061-2.522-2.334a1.096 1.096 0 0 0-1.547.06 1.092 1.092 0 0 0 .061 1.546l3.486 3.225c.013.011.028.014.04.025.032.025.05.06.083.083.047.031.1.037.15.06.06.027.118.054.18.071.061.016.12.024.183.028.09.01.175.01.263-.003.035-.006.07-.015.106-.025a1.09 1.09 0 0 0 .306-.128c.017-.01.031-.023.048-.034.065-.044.133-.077.188-.136.039-.042.056-.097.087-.144.002-.002.005-.003.005-.005l5.988-9.151a1.096 1.096 0 0 0-.316-1.516z" fill="#88acad"/></svg>